<?xml version="1.0" encoding="utf-8"?>
<!-- Generator: Adobe Illustrator 23.0.1, SVG Export Plug-In . SVG Version: 6.00 Build 0)  -->
<svg version="1.1" id="Layer_1" xmlns="http://www.w3.org/2000/svg" xmlns:xlink="http://www.w3.org/1999/xlink" x="0px" y="0px"
	 viewBox="0 0 512 512" style="enable-background:new 0 0 512 512;" xml:space="preserve">
<style type="text/css">
	.st0{fill:#4A2619;}
</style>
<g>
	<path class="st0" d="M330.8,484.6C330.8,484.6,330.8,484.6,330.8,484.6c0.6,2.9,3.1,4.9,6,4.9c3.7,0,7.4,0,11.1,0
		c55.4,0,81.5-15.6,98.2-58.5c17.8-45.6,8.5-76.3-32.6-113.5c-20.8-18.8-40.2-39-60.3-58.5c-12.5-12-24.2-25.1-38-35.4
		c-32.4-24-69.4-22.1-98.2,5.9c-12.2,11.9-22.5,26.7-30.1,42c-17.8,35.8-33.8,72.5-50,109.1c-15.5,35-11.9,68.3,13.4,97.2
		c25.7,29.4,58.9,33.1,95.3,24.3C273.7,495.4,301.9,484.2,330.8,484.6z"/>
	<path class="st0" d="M101.2,90.7c2.4,39.5,10.3,68.7,35.9,89.7c17.3,14.1,37,21.5,59.3,11.7c23.1-10.1,29.4-31.3,28.2-53
		c-2.3-41.7-20.9-77.1-52.5-104.2c-21.8-18.7-46.9-13-59.1,13.5C105.9,63.7,103.7,81.3,101.2,90.7z"/>
	<path class="st0" d="M364.6,93.3c-7.3-22.2-10.4-45.7-21.9-63.7c-22.6-35.4-63.3-32.1-83,5.2c-20.1,38-20,77.3,1.3,114.8
		c19.4,34.2,59.9,36.9,81.5,4.2C353.6,136.8,357,114.9,364.6,93.3z"/>
	<path class="st0" d="M162.7,276.3c-0.9-28.9-25.1-70.8-50.5-87.5c-35.7-23.5-74-5.1-78,37.7c-3.3,34.1,22.2,81.8,52.2,97.7
		C125.3,344.7,164.1,320.4,162.7,276.3z"/>
	<path class="st0" d="M479.4,189.3c-0.1-33.2-12.1-54.4-34.5-61.1c-25.7-7.7-53,5.8-69.1,34.6c-15,27-17.4,55.7-8.1,84.9
		c13.3,41.5,48.5,50.6,79.6,20.6C469.4,246.9,480,220.2,479.4,189.3z"/>
	<path class="st0" d="M331.3,487.3c-0.3-1.5-23.3,1.1-24.8,1.4c-27.6,5.6-33.7,6.9-61,13.5c-36.4,8.8-69.6,5.1-95.3-24.3
		c-25.3-28.9-28.9-62.2-13.4-97.2c16.3-36.6,32.2-73.3,50-109.1c7.6-15.3,17.9-30.1,30.1-42c28.7-28,65.8-29.9,98.2-5.9
		c13.8,10.3,25.6,23.4,38,35.4c20.2,19.4,39.6,39.7,60.3,58.5c41.1,37.2,50.4,67.9,32.6,113.5c-16.7,42.8-42.9,58.4-98.2,58.5
		c-4.6,0-4-1.4-8.6-1.4C337.9,488.1,333.9,486.5,331.3,487.3C331.3,487.3,331.3,487.3,331.3,487.3z"/>
	<path class="st0" d="M101.2,90.7c2.5-9.4,4.7-27,11.8-42.3c12.3-26.4,37.3-32.2,59.1-13.5c31.6,27.1,50.1,62.6,52.5,104.2
		c1.2,21.7-5.1,42.8-28.2,53c-22.3,9.8-42.1,2.4-59.3-11.7C111.5,159.4,103.6,130.2,101.2,90.7z"/>
	<path class="st0" d="M364.6,93.3c-7.6,21.6-11,43.6-22.1,60.4c-21.7,32.8-62.1,30.1-81.5-4.2c-21.3-37.5-21.4-76.9-1.3-114.8
		c19.8-37.3,60.4-40.6,83-5.2C354.2,47.6,357.3,71,364.6,93.3z"/>
	<path class="st0" d="M162.7,276.3c1.4,44.2-37.4,68.5-76.3,47.8c-30-15.9-55.5-63.5-52.2-97.7c4.1-42.8,42.3-61.2,78-37.7
		C137.6,205.5,161.8,247.4,162.7,276.3z"/>
	<path class="st0" d="M479.4,189.3c0.7,30.9-9.9,57.6-32,79c-31.1,30.1-66.3,20.9-79.6-20.6c-9.3-29.2-6.9-57.9,8.1-84.9
		c16-28.9,43.4-42.3,69.1-34.6C467.3,134.9,479.3,156.1,479.4,189.3z"/>
</g>
</svg>
